<?xml version="1.0" encoding="UTF-8" standalone="no"?>
<!-- Created with Inkscape (http://www.inkscape.org/) -->

<svg
   width="2rem"
   height="2rem"
   viewBox="0 0 584.21023 549.30079"
   version="1.1"
   id="svg7966"
   inkscape:version="1.1.1 (c3084ef, 2021-09-22)"
   sodipodi:docname="SHSM_standard_arrow.svg"
   xmlns:inkscape="http://www.inkscape.org/namespaces/inkscape"
   xmlns:sodipodi="http://sodipodi.sourceforge.net/DTD/sodipodi-0.dtd"
   xmlns="http://www.w3.org/2000/svg"
   xmlns:svg="http://www.w3.org/2000/svg">
  <sodipodi:namedview
     id="namedview7968"
     pagecolor="#000000"
     bordercolor="#666666"
     borderopacity="1.0"
     inkscape:pageshadow="2"
     inkscape:pageopacity="0.0"
     inkscape:pagecheckerboard="0"
     inkscape:document-units="in"
     showgrid="false"
     inkscape:snap-bbox="true"
     inkscape:snap-bbox-midpoints="true"
     inkscape:bbox-paths="true"
     inkscape:bbox-nodes="true"
     inkscape:snap-bbox-edge-midpoints="true"
     inkscape:snap-tangential="true"
     inkscape:object-paths="true"
     inkscape:snap-intersection-paths="true"
     inkscape:snap-smooth-nodes="true"
     inkscape:snap-midpoints="true"
     units="in"
     fit-margin-top="0"
     fit-margin-left="0"
     fit-margin-right="0"
     fit-margin-bottom="0"
     inkscape:zoom="0.26602564"
     inkscape:cx="1138.988"
     inkscape:cy="941.63855"
     inkscape:window-width="1393"
     inkscape:window-height="855"
     inkscape:window-x="0"
     inkscape:window-y="23"
     inkscape:window-maximized="0"
     inkscape:current-layer="layer1" />
  <defs
     id="defs7963" />
  <g
     inkscape:label="Lớp 1"
     inkscape:groupmode="layer"
     id="layer1"
     transform="translate(146.3548,-33.566944)">
    <g
       id="g9182"
       style="fill:#ffffff">
      <path
         id="rect8051"
         style="fill:#ffffff;stroke-width:5.952;stroke-linecap:square;stroke-miterlimit:10"
         d="m 94.886719,126.86719 a 156.00001,156.00001 0 0 0 -156,156 156.00001,156.00001 0 0 0 7.548828,47.75 l -0.05078,0.0371 268.462893,834.26171 -268.462893,834.2617 0.05078,0.037 a 156.00001,156.00001 0 0 0 -7.548828,47.75 156.00001,156.00001 0 0 0 156,156 156.00001,156.00001 0 0 0 88.294921,-27.416 l 0.0156,0.012 L 1654.8867,1164.916 183.19727,154.27148 l -0.01,0.008 A 156.00001,156.00001 0 0 0 94.886719,126.86719 Z"
         transform="scale(0.26458333)" />
      <rect
         style="fill:#ffffff;stroke-width:1.5748;stroke-linecap:square;stroke-miterlimit:10"
         id="rect8443"
         width="203.2"
         height="203.2"
         x="-146.3548"
         y="206.61729" />
    </g>
  </g>
</svg>
